<?xml version="1.0" encoding="UTF-8" standalone="no"?>
<!-- Created with Inkscape (http://www.inkscape.org/) -->

<svg
   width="512"
   height="512"
   viewBox="0 0 512 512"
   version="1.1"
   id="svg1"
   xmlns="http://www.w3.org/2000/svg"
   xmlns:svg="http://www.w3.org/2000/svg">
  <defs id="defs1" />
  <style>
    path { fill: #352925; }
    @media (prefers-color-scheme: dark) {
      path { fill: #d6c4b0; }
    }
  </style>
  <g
     id="layer1"
     transform="translate(-615.91088,-5.6568538)">
    <g
       id="g70"
       transform="translate(7.1e-4,-605.28362)"
       style="fill:#352925;fill-opacity:1">
      <path
         id="path69"
         style="font-weight:bold;font-size:554.802px;font-family:'DejaVu Sans';-inkscape-font-specification:'DejaVu Sans Bold';fill-opacity:1;stroke-width:6.25"
         d="m 986.81518,610.94064 c -39.37071,0 -68.08659,7.94512 -86.14649,23.83789 -18.06,15.71217 -27.08985,40.99779 -27.08985,75.85352 v 55.5332 c 0,27.08994 -4.87455,45.87287 -14.62694,56.34765 -9.7524,10.47477 -27.45246,15.71094 -53.09766,15.71094 H 789.3308 v 0.002 h -91.10937 v 196.62496 c 0,36.9043 43.72947,87.9649 91.10937,87.9649 V 895.65748 h 16.52344 c 25.6452,0 43.34526,5.23616 53.09766,15.71093 9.75239,10.47478 14.62694,29.25772 14.62694,56.34766 v 55.53323 c 0,34.8557 9.02985,60.1413 27.08985,75.8535 18.0599,15.8928 46.77578,23.8379 86.14649,23.8379 h 58.78512 c 0,0 -55.26242,-19.1882 -70.09371,-42.043 -14.79551,-22.7995 -9.82032,-55.3001 -9.82032,-80.94531 v -44.96874 c 0,-28.35414 -4.0645,-48.94306 -12.1914,-61.76563 -8.127,-12.82257 -22.12238,-21.49087 -41.98828,-26.00586 l -1.12305,-0.27192 1.12305,-0.27105 c 19.8659,-4.51499 33.86128,-13.18328 41.98828,-26.00585 8.1269,-12.82258 12.1914,-33.41149 12.1914,-61.76563 v -44.96875 c 0,-25.64515 -4.97519,-58.14577 9.82032,-80.94531 14.83129,-22.85483 70.09371,-42.04297 70.09371,-42.04297 z" />
      <path
         id="path70"
         style="fill-opacity:1;stroke:none;stroke-width:6.50702;stroke-dasharray:none;stroke-opacity:1;paint-order:normal"
         d="m 743.77504,803.48608 c 0,0 -1.94151,-43.05863 -45.555,-96.27293 43.61349,-53.2143 45.555,-96.27291 45.555,-96.27291 0,0 1.9414,43.05861 45.555,96.27291 -43.6136,53.2143 -45.555,96.27293 -45.555,96.27293 z" />
    </g>
  </g>
</svg>
