<?xml version="1.0" encoding="UTF-8" standalone="no"?>
<!-- Created with Inkscape (http://www.inkscape.org/) -->

<svg
   width="512"
   height="512"
   viewBox="0 0 512 512"
   version="1.1"
   id="svg1"
   xmlns="http://www.w3.org/2000/svg"
   xmlns:svg="http://www.w3.org/2000/svg">
  <defs
     id="defs1" />
  <g
     id="layer1"
     transform="translate(-615.91088,-5.6568538)">
    <g
       id="g3"
       transform="translate(22.196413)">
      <path
         id="text33"
         style="font-weight:bold;font-size:554.802px;font-family:'DejaVu Sans';-inkscape-font-specification:'DejaVu Sans Bold';fill:#352925;stroke-width:6.25"
         d="M -676.02404,5.6568542 V 66.609979 h -18.69141 c -25.46454,0 -42.07991,3.971586 -49.8457,11.917969 -7.58518,7.765783 -11.37891,24.472042 -11.37891,50.117192 v 44.96875 c 0,28.35414 -4.06247,48.94305 -12.18945,61.76562 -8.12699,12.82257 -22.12428,21.49087 -41.99023,26.00586 20.04655,4.87619 34.04384,13.72625 41.99023,26.54883 8.12698,12.82257 12.18945,33.3206 12.18945,61.49414 v 44.96875 c 0,25.82575 3.79373,42.62289 11.37891,50.38867 7.76579,7.94639 24.38116,11.91797 49.8457,11.91797 h 18.69141 v 60.95312 h -58.78516 c -39.37071,0 -68.08652,-7.94707 -86.14648,-23.83984 -18.05996,-15.89277 -27.08985,-41.26732 -27.08985,-76.12305 v -52.01172 c 0,-27.08994 -4.87652,-45.87288 -14.6289,-56.34765 -9.75238,-10.65538 -27.45056,-15.98242 -53.09571,-15.98242 h -16.52539 v 224.17968 h -91.10937 V 232.94201 h 91.10937 16.52539 c 25.64515,0 43.34333,-5.23812 53.09571,-15.71289 9.75238,-10.47478 14.6289,-29.25772 14.6289,-56.34766 v -55.5332 c 0,-34.855726 9.02989,-60.139396 27.08985,-75.851562 18.05996,-15.892766 46.77577,-23.8398438 86.14648,-23.8398438 z"
         transform="scale(-1,1)" />
      <path
         id="path35"
         style="fill:#352925;fill-opacity:1;stroke:none;stroke-width:5.89086;stroke-dasharray:none;stroke-opacity:1;paint-order:normal"
         d="m 977.84981,198.20277 c 0,0 1.94153,-35.29009 45.55499,-78.90358 -43.61346,-43.613497 -45.55499,-78.903575 -45.55499,-78.903575 0,0 -1.94144,35.290078 -45.55498,78.903575 43.61354,43.61349 45.55498,78.90358 45.55498,78.90358 z" />
    </g>
  </g>
</svg>
