<?xml version="1.0" encoding="UTF-8" standalone="no"?>
<!-- Created with Inkscape (http://www.inkscape.org/) -->

<svg
   width="512"
   height="512"
   viewBox="0 0 512 512"
   version="1.1"
   id="svg1"
   xmlns="http://www.w3.org/2000/svg"
   xmlns:svg="http://www.w3.org/2000/svg">
  <defs
     id="defs1" />
  <g
     id="layer1"
     transform="translate(-5.6568542,-5.6568542)">
    <path
       id="path9"
       style="display:inline;fill:#5d4f4b;fill-opacity:1;stroke:none;stroke-width:7.07182;stroke-dasharray:none;stroke-opacity:1"
       d="m 261.65685,5.6568659 c -35.09364,2.829e-4 -69.81248,7.2159471 -102.00002,21.1989221 24.0152,2.671735 42.35145,9.577786 55.01101,20.718171 16.65372,14.488752 24.98079,37.803139 24.98079,69.944721 v 51.21004 c 0,24.98051 4.49867,42.30209 13.49162,51.96121 8.9931,9.65926 25.31303,14.48621 48.96135,14.48621 h 15.23751 v 55.70715 H 302.1016 c -23.64832,0 -39.96825,4.91478 -48.96135,14.74037 -8.99295,9.65912 -13.49162,26.97803 -13.49162,51.9586 v 47.96132 c 0,32.14166 -8.32707,55.54087 -24.98079,70.19613 -12.65956,11.14046 -30.99581,18.04639 -55.01101,20.71824 32.18754,13.9829 66.90638,21.19859 102.00002,21.19889 34.00925,-3e-5 59.84332,-6.77652 91.20446,-19.9337 V 261.65686 h 89.43084 v 181.40329 c 48.2444,-48.04032 75.36499,-113.31962 75.3647,-181.40329 0,-141.38498 -114.61516,-255.9999941 -256,-255.9999941 z M 397.43034,66.427581 c 0,0 1.89963,34.526759 44.56904,77.196169 -42.66941,42.66926 -44.56904,77.19602 -44.56904,77.19602 0,0 -1.89963,-34.52676 -44.56903,-77.19602 42.6694,-42.66941 44.56903,-77.196169 44.56903,-77.196169 z M 81.021562,81.797765 C 32.777153,129.83808 5.6565689,193.57317 5.6568518,261.65686 5.6565689,329.74053 32.777153,393.47564 81.021562,441.51596 h 17.237569 c 23.481709,0 38.802939,-3.66409 45.964009,-10.99172 6.9946,-7.1611 10.49176,-22.64652 10.49176,-46.46133 V 342.5933 c 0,-25.97974 3.74891,-44.88032 11.24306,-56.70441 7.32755,-11.82409 20.23263,-19.98412 38.71824,-24.48067 -18.31914,-4.16347 -31.22408,-12.1593 -38.71824,-23.98338 -7.49415,-11.82423 -11.24306,-30.80953 -11.24306,-56.9559 v -41.46677 c 0,-23.64832 -3.49716,-39.0516 -10.49176,-46.21267 -7.16107,-7.327682 -22.4823,-10.991735 -45.964009,-10.991735 -5.745856,0 -11.491713,0 -17.237569,0 z" />
  </g>
</svg>
