<?xml version="1.0" encoding="UTF-8" standalone="no"?>
<!-- Created with Inkscape (http://www.inkscape.org/) -->

<svg
   width="512"
   height="512"
   viewBox="0 0 512 512"
   version="1.1"
   id="svg1"
   inkscape:version="1.4.3 (0d15f75, 2025-12-25)"
   sodipodi:docname="logo-artboard.svg"
   inkscape:export-filename="logo.svg"
   inkscape:export-xdpi="96"
   inkscape:export-ydpi="96"
   xmlns:inkscape="http://www.inkscape.org/namespaces/inkscape"
   xmlns:sodipodi="http://sodipodi.sourceforge.net/DTD/sodipodi-0.dtd"
   xmlns="http://www.w3.org/2000/svg"
   xmlns:svg="http://www.w3.org/2000/svg">
  <sodipodi:namedview
     id="namedview1"
     pagecolor="#505050"
     bordercolor="#eeeeee"
     borderopacity="1"
     inkscape:showpageshadow="0"
     inkscape:pageopacity="0"
     inkscape:pagecheckerboard="0"
     inkscape:deskcolor="#505050"
     inkscape:document-units="px"
     showguides="false"
     showgrid="false"
     inkscape:zoom="0.70710678"
     inkscape:cx="993.48502"
     inkscape:cy="-82.024386"
     inkscape:window-width="2532"
     inkscape:window-height="1363"
     inkscape:window-x="0"
     inkscape:window-y="0"
     inkscape:window-maximized="1"
     inkscape:current-layer="layer1">
    <inkscape:page
       x="0"
       y="0"
       width="512"
       height="512"
       id="page44"
       margin="0"
       bleed="0" />
    <inkscape:page
       x="0"
       y="-605.28339"
       width="512"
       height="512"
       id="page45"
       margin="0"
       bleed="0" />
    <inkscape:page
       x="597.58118"
       y="0"
       width="512"
       height="512"
       id="page47"
       margin="0"
       bleed="0" />
    <inkscape:page
       x="597.58118"
       y="-605.28339"
       width="512"
       height="512"
       id="page48"
       margin="0"
       bleed="0" />
    <inkscape:grid
       id="grid49"
       units="px"
       originx="-610.25403"
       originy="-605.28339"
       spacingx="1"
       spacingy="1"
       empcolor="#0099e5"
       empopacity="0.30196078"
       color="#0099e5"
       opacity="0.14901961"
       empspacing="5"
       enabled="false"
       visible="false"
       dotted="false" />
    <inkscape:grid
       type="modular"
       id="grid50"
       units="px"
       originx="-610.25403"
       originy="-605.28339"
       spacingx="151.1811"
       spacingy="151.1811"
       empcolor="#0047cb"
       empopacity="0.30196078"
       color="#0099e5"
       opacity="0.14901961"
       empspacing="0"
       marginx="0"
       marginy="0"
       gapx="37.795276"
       gapy="37.795276"
       enabled="true"
       visible="false" />
    <inkscape:grid
       id="grid51"
       units="px"
       originx="-610.25403"
       originy="-605.28339"
       spacingx="1"
       spacingy="1"
       empcolor="#0099e5"
       empopacity="0.30196078"
       color="#0099e5"
       opacity="0.14901961"
       empspacing="5"
       enabled="true"
       visible="false" />
    <inkscape:page
       x="1210.0908"
       y="-605.28339"
       width="512"
       height="512"
       id="page54"
       margin="0"
       bleed="0"
       inkscape:export-filename="../../public/logo.svg"
       inkscape:export-xdpi="96"
       inkscape:export-ydpi="96" />
    <inkscape:page
       x="1210.0908"
       y="0"
       width="512"
       height="512"
       id="page55"
       margin="0"
       bleed="0"
       inkscape:export-filename="../../public/logo.svg"
       inkscape:export-xdpi="96"
       inkscape:export-ydpi="96" />
    <inkscape:page
       x="1820.0907"
       y="-605.28339"
       width="1200"
       height="630"
       id="page56"
       margin="0"
       bleed="0"
       inkscape:export-filename="thumbnail.png"
       inkscape:export-xdpi="96"
       inkscape:export-ydpi="96" />
  </sodipodi:namedview>
  <defs
     id="defs1">
    <clipPath
       clipPathUnits="userSpaceOnUse"
       id="clipPath16">
      <circle
         style="fill:#d6c4b0;fill-opacity:1;stroke:#5a0000;stroke-width:0;stroke-linecap:butt;stroke-linejoin:miter;stroke-dasharray:none;stroke-opacity:1;paint-order:normal"
         id="circle17"
         cx="256"
         cy="256"
         r="256" />
    </clipPath>
  </defs>
  <g
     inkscape:label="Layer 1"
     inkscape:groupmode="layer"
     id="layer1"
     transform="translate(-615.91088,-610.94024)">
    <circle
       style="fill:#d6c4b0;fill-opacity:1;stroke:#5a0000;stroke-width:10;stroke-linecap:butt;stroke-linejoin:miter;stroke-dasharray:none;stroke-opacity:1;paint-order:normal"
       id="circle16"
       cx="256"
       cy="256"
       r="256"
       clip-path="url(#clipPath16)"
       transform="translate(1213.4921,610.94024)" />
    <circle
       style="fill:#352925;fill-opacity:1;stroke:#ffe3b5;stroke-width:10;stroke-linecap:butt;stroke-linejoin:miter;stroke-dasharray:none;stroke-opacity:1;paint-order:normal"
       id="circle18"
       cx="256"
       cy="256"
       r="256"
       clip-path="url(#clipPath16)"
       transform="translate(1213.4921,5.6569)" />
    <g
       id="g3"
       transform="translate(22.196413)">
      <path
         id="text33"
         style="font-weight:bold;font-size:554.802px;font-family:'DejaVu Sans';-inkscape-font-specification:'DejaVu Sans Bold';fill:#352925;stroke-width:6.25"
         d="M -676.02404,5.6568542 V 66.609979 h -18.69141 c -25.46454,0 -42.07991,3.971586 -49.8457,11.917969 -7.58518,7.765783 -11.37891,24.472042 -11.37891,50.117192 v 44.96875 c 0,28.35414 -4.06247,48.94305 -12.18945,61.76562 -8.12699,12.82257 -22.12428,21.49087 -41.99023,26.00586 20.04655,4.87619 34.04384,13.72625 41.99023,26.54883 8.12698,12.82257 12.18945,33.3206 12.18945,61.49414 v 44.96875 c 0,25.82575 3.79373,42.62289 11.37891,50.38867 7.76579,7.94639 24.38116,11.91797 49.8457,11.91797 h 18.69141 v 60.95312 h -58.78516 c -39.37071,0 -68.08652,-7.94707 -86.14648,-23.83984 -18.05996,-15.89277 -27.08985,-41.26732 -27.08985,-76.12305 v -52.01172 c 0,-27.08994 -4.87652,-45.87288 -14.6289,-56.34765 -9.75238,-10.65538 -27.45056,-15.98242 -53.09571,-15.98242 h -16.52539 v 224.17968 h -91.10937 V 232.94201 h 91.10937 16.52539 c 25.64515,0 43.34333,-5.23812 53.09571,-15.71289 9.75238,-10.47478 14.6289,-29.25772 14.6289,-56.34766 v -55.5332 c 0,-34.855726 9.02989,-60.139396 27.08985,-75.851562 18.05996,-15.892766 46.77577,-23.8398438 86.14648,-23.8398438 z"
         transform="scale(-1,1)" />
      <path
         id="path35"
         style="fill:#352925;fill-opacity:1;stroke:none;stroke-width:5.89086;stroke-dasharray:none;stroke-opacity:1;paint-order:normal"
         d="m 977.84981,198.20277 c 0,0 1.94153,-35.29009 45.55499,-78.90358 -43.61346,-43.613497 -45.55499,-78.903575 -45.55499,-78.903575 0,0 -1.94144,35.290078 -45.55498,78.903575 43.61354,43.61349 45.55498,78.90358 45.55498,78.90358 z"
         sodipodi:nodetypes="ccccc" />
    </g>
    <rect
       style="fill:#352925;fill-opacity:1;stroke:none;stroke-width:10;stroke-linecap:butt;stroke-linejoin:miter;stroke-dasharray:none;stroke-opacity:1;paint-order:normal"
       id="rect56"
       width="1200"
       height="630"
       x="2436.0015"
       y="5.6568542" />
    <text
       xml:space="preserve"
       style="font-style:normal;font-variant:normal;font-weight:bold;font-stretch:normal;font-size:41.719px;font-family:'Spectral SC';-inkscape-font-specification:'Spectral SC, Bold';font-variant-ligatures:normal;font-variant-caps:normal;font-variant-numeric:normal;font-variant-east-asian:normal;writing-mode:lr-tb;direction:ltr;fill:#ffe3b5;stroke-width:10"
       x="3499.6567"
       y="655.22626"
       id="text1"><tspan
         sodipodi:role="line"
         id="tspan1"
         x="3499.6567"
         y="655.22626" /></text>
    <path
       style="font-weight:bold;font-size:554.802px;font-family:'DejaVu Sans';-inkscape-font-specification:'DejaVu Sans Bold';fill:#352925;stroke-width:6.25"
       d="m 714.54498,-278.68659 v 60.95237 h 58.78518 q 59.05607,0 86.14601,-23.83915 27.08994,-23.83915 27.08994,-76.12274 v -52.01269 q 0,-40.63491 14.62857,-56.34707 14.62857,-15.98307 53.09629,-15.98307 h 16.52486 v -60.41057 h -16.52486 q -38.46772,0 -53.09629,-15.71216 -14.62857,-15.71217 -14.62857,-56.34708 v -55.53438 q 0,-52.28359 -27.08994,-75.85184 -27.08994,-23.83915 -86.14601,-23.83915 h -58.78518 v 60.95237 h 18.69206 q 38.19682,0 49.8455,11.91958 11.37777,11.64867 11.37777,50.11639 v 44.9693 q 0,42.53121 12.19047,61.76507 12.19048,19.23385 41.98941,26.00634 -30.06983,7.31428 -41.98941,26.54814 -12.19047,19.23386 -12.19047,61.49417 v 44.9693 q 0,38.73862 -11.37777,50.38729 -11.64868,11.91958 -49.8455,11.91958 z"
       id="path1"
       aria-label="{" />
    <path
       d="m 1061.9258,-502.44951 h -91.10997 v 284.59031 h 91.10997 z"
       id="path2"
       style="font-weight:bold;font-size:531.654px;font-family:'DejaVu Sans';-inkscape-font-specification:'DejaVu Sans Bold';fill:#352925;fill-opacity:1;stroke:none;stroke-width:6.38715;stroke-dasharray:none;stroke-opacity:1;paint-order:normal"
       aria-label="i"
       sodipodi:nodetypes="ccccc" />
    <path
       id="path3"
       style="fill:#352925;fill-opacity:1;stroke:none;stroke-width:5.89086;stroke-dasharray:none;stroke-opacity:1;paint-order:normal"
       d="m 1016.3708,-537.18828 c 0,0 1.9415,-35.29009 45.555,-78.90358 -43.6135,-43.6135 -45.555,-78.90357 -45.555,-78.90357 0,0 -1.9414,35.29007 -45.55497,78.90357 43.61357,43.61349 45.55497,78.90358 45.55497,78.90358 z"
       sodipodi:nodetypes="ccccc" />
    <g
       id="g5"
       transform="translate(22.196413,605.28339)"
       style="fill:#d6c4b0;fill-opacity:1">
      <path
         id="path4"
         style="font-weight:bold;font-size:554.802px;font-family:'DejaVu Sans';-inkscape-font-specification:'DejaVu Sans Bold';fill:#d6c4b0;fill-opacity:1;stroke-width:6.25"
         d="M -676.02404,5.6568542 V 66.609979 h -18.69141 c -25.46454,0 -42.07991,3.971586 -49.8457,11.917969 -7.58518,7.765783 -11.37891,24.472042 -11.37891,50.117192 v 44.96875 c 0,28.35414 -4.06247,48.94305 -12.18945,61.76562 -8.12699,12.82257 -22.12428,21.49087 -41.99023,26.00586 20.04655,4.87619 34.04384,13.72625 41.99023,26.54883 8.12698,12.82257 12.18945,33.3206 12.18945,61.49414 v 44.96875 c 0,25.82575 3.79373,42.62289 11.37891,50.38867 7.76579,7.94639 24.38116,11.91797 49.8457,11.91797 h 18.69141 v 60.95312 h -58.78516 c -39.37071,0 -68.08652,-7.94707 -86.14648,-23.83984 -18.05996,-15.89277 -27.08985,-41.26732 -27.08985,-76.12305 v -52.01172 c 0,-27.08994 -4.87652,-45.87288 -14.6289,-56.34765 -9.75238,-10.65538 -27.45056,-15.98242 -53.09571,-15.98242 h -16.52539 v 224.17968 h -91.10937 V 232.94201 h 91.10937 16.52539 c 25.64515,0 43.34333,-5.23812 53.09571,-15.71289 9.75238,-10.47478 14.6289,-29.25772 14.6289,-56.34766 v -55.5332 c 0,-34.855726 9.02989,-60.139396 27.08985,-75.851562 18.05996,-15.892766 46.77577,-23.8398438 86.14648,-23.8398438 z"
         transform="scale(-1,1)" />
      <path
         id="path5"
         style="fill:#d6c4b0;fill-opacity:1;stroke:none;stroke-width:5.89086;stroke-dasharray:none;stroke-opacity:1;paint-order:normal"
         d="m 977.84981,198.20277 c 0,0 1.94153,-35.29009 45.55499,-78.90358 -43.61346,-43.613497 -45.55499,-78.903575 -45.55499,-78.903575 0,0 -1.94144,35.290078 -45.55498,78.903575 43.61354,43.61349 45.55498,78.90358 45.55498,78.90358 z"
         sodipodi:nodetypes="ccccc" />
    </g>
    <g
       id="g7"
       transform="matrix(0.66951533,0,0,0.66951533,900.24692,691.75697)"
       style="fill:#f2ebe0;fill-opacity:1;stroke:#5a0000;stroke-opacity:1">
      <path
         id="path6"
         style="font-weight:bold;font-size:554.802px;font-family:'DejaVu Sans';-inkscape-font-specification:'DejaVu Sans Bold';fill:#f2ebe0;fill-opacity:1;stroke:#5a0000;stroke-width:6.25;stroke-opacity:1"
         d="M -676.02404,5.6568542 V 66.609979 h -18.69141 c -25.46454,0 -42.07991,3.971586 -49.8457,11.917969 -7.58518,7.765783 -11.37891,24.472042 -11.37891,50.117192 v 44.96875 c 0,28.35414 -4.06247,48.94305 -12.18945,61.76562 -8.12699,12.82257 -22.12428,21.49087 -41.99023,26.00586 20.04655,4.87619 34.04384,13.72625 41.99023,26.54883 8.12698,12.82257 12.18945,33.3206 12.18945,61.49414 v 44.96875 c 0,25.82575 3.79373,42.62289 11.37891,50.38867 7.76579,7.94639 24.38116,11.91797 49.8457,11.91797 h 18.69141 v 60.95312 h -58.78516 c -39.37071,0 -68.08652,-7.94707 -86.14648,-23.83984 -18.05996,-15.89277 -27.08985,-41.26732 -27.08985,-76.12305 v -52.01172 c 0,-27.08994 -4.87652,-45.87288 -14.6289,-56.34765 -9.75238,-10.65538 -27.45056,-15.98242 -53.09571,-15.98242 h -16.52539 v 224.17968 h -91.10937 V 232.94201 h 91.10937 16.52539 c 25.64515,0 43.34333,-5.23812 53.09571,-15.71289 9.75238,-10.47478 14.6289,-29.25772 14.6289,-56.34766 v -55.5332 c 0,-34.855726 9.02989,-60.139396 27.08985,-75.851562 18.05996,-15.892766 46.77577,-23.8398438 86.14648,-23.8398438 z"
         transform="scale(-1,1)" />
      <path
         id="path7"
         style="fill:#f2ebe0;fill-opacity:1;stroke:#5a0000;stroke-width:5.89086;stroke-dasharray:none;stroke-opacity:1;paint-order:normal"
         d="m 977.84981,198.20277 c 0,0 1.94153,-35.29009 45.55499,-78.90358 -43.61346,-43.613497 -45.55499,-78.903575 -45.55499,-78.903575 0,0 -1.94144,35.290078 -45.55498,78.903575 43.61354,43.61349 45.55498,78.90358 45.55498,78.90358 z"
         sodipodi:nodetypes="ccccc" />
    </g>
    <g
       id="g9"
       transform="matrix(0.66951533,0,0,0.66951533,900.24692,86.47358)"
       style="fill:#5d4f4b;fill-opacity:1;stroke:#ffe3b5;stroke-opacity:1">
      <path
         id="path8"
         style="font-weight:bold;font-size:554.802px;font-family:'DejaVu Sans';-inkscape-font-specification:'DejaVu Sans Bold';fill:#5d4f4b;fill-opacity:1;stroke:#ffe3b5;stroke-width:6.25;stroke-opacity:1"
         d="M -676.02404,5.6568542 V 66.609979 h -18.69141 c -25.46454,0 -42.07991,3.971586 -49.8457,11.917969 -7.58518,7.765783 -11.37891,24.472042 -11.37891,50.117192 v 44.96875 c 0,28.35414 -4.06247,48.94305 -12.18945,61.76562 -8.12699,12.82257 -22.12428,21.49087 -41.99023,26.00586 20.04655,4.87619 34.04384,13.72625 41.99023,26.54883 8.12698,12.82257 12.18945,33.3206 12.18945,61.49414 v 44.96875 c 0,25.82575 3.79373,42.62289 11.37891,50.38867 7.76579,7.94639 24.38116,11.91797 49.8457,11.91797 h 18.69141 v 60.95312 h -58.78516 c -39.37071,0 -68.08652,-7.94707 -86.14648,-23.83984 -18.05996,-15.89277 -27.08985,-41.26732 -27.08985,-76.12305 v -52.01172 c 0,-27.08994 -4.87652,-45.87288 -14.6289,-56.34765 -9.75238,-10.65538 -27.45056,-15.98242 -53.09571,-15.98242 h -16.52539 v 224.17968 h -91.10937 V 232.94201 h 91.10937 16.52539 c 25.64515,0 43.34333,-5.23812 53.09571,-15.71289 9.75238,-10.47478 14.6289,-29.25772 14.6289,-56.34766 v -55.5332 c 0,-34.855726 9.02989,-60.139396 27.08985,-75.851562 18.05996,-15.892766 46.77577,-23.8398438 86.14648,-23.8398438 z"
         transform="scale(-1,1)" />
      <path
         id="path9"
         style="fill:#5d4f4b;fill-opacity:1;stroke:#ffe3b5;stroke-width:5.89086;stroke-dasharray:none;stroke-opacity:1;paint-order:normal"
         d="m 977.84981,198.20277 c 0,0 1.94153,-35.29009 45.55499,-78.90358 -43.61346,-43.613497 -45.55499,-78.903575 -45.55499,-78.903575 0,0 -1.94144,35.290078 -45.55498,78.903575 43.61354,43.61349 45.55498,78.90358 45.55498,78.90358 z"
         sodipodi:nodetypes="ccccc" />
    </g>
    <g
       id="g18"
       transform="translate(1.4700625e-5,0.15541325)">
      <text
         xml:space="preserve"
         style="font-style:normal;font-variant:normal;font-weight:bold;font-stretch:normal;font-size:43.6774px;font-family:'DejaVu Sans';-inkscape-font-specification:'DejaVu Sans Bold';font-variant-ligatures:normal;font-variant-caps:normal;font-variant-numeric:normal;font-variant-east-asian:normal;writing-mode:lr-tb;direction:ltr;fill:#ffe3b5;fill-opacity:1;stroke:none;stroke-width:0.821542;stroke-linecap:butt;stroke-linejoin:miter;stroke-dasharray:none;stroke-opacity:1;paint-order:normal"
         x="2850.8098"
         y="395.69809"
         id="text57"><tspan
           sodipodi:role="line"
           id="tspan57"
           x="2850.8098"
           y="395.69809"
           style="font-style:normal;font-variant:normal;font-weight:bold;font-stretch:normal;font-size:43.6774px;font-family:'Spectral SC';-inkscape-font-specification:'Spectral SC, Bold';font-variant-ligatures:normal;font-variant-caps:normal;font-variant-numeric:normal;font-variant-east-asian:normal;stroke-width:0.821542">Kieran CANTER</tspan></text>
      <text
         xml:space="preserve"
         style="font-style:normal;font-variant:normal;font-weight:bold;font-stretch:normal;font-size:29.9543px;font-family:'DejaVu Sans';-inkscape-font-specification:'DejaVu Sans Bold';font-variant-ligatures:normal;font-variant-caps:normal;font-variant-numeric:normal;font-variant-east-asian:normal;writing-mode:lr-tb;direction:ltr;fill:#ffe3b5;fill-opacity:1;stroke:none;stroke-width:0.563419;stroke-linecap:butt;stroke-linejoin:miter;stroke-dasharray:none;stroke-opacity:1;paint-order:normal"
         x="2882.0195"
         y="436.60141"
         id="text58"><tspan
           sodipodi:role="line"
           id="tspan58"
           x="2882.0195"
           y="436.60141"
           style="font-style:normal;font-variant:normal;font-weight:bold;font-stretch:normal;font-size:29.9543px;font-family:'Spectral SC';-inkscape-font-specification:'Spectral SC, Bold';font-variant-ligatures:normal;font-variant-caps:normal;font-variant-numeric:normal;font-variant-east-asian:normal;stroke-width:0.563419">Software Engineer</tspan></text>
      <g
         id="g17"
         transform="matrix(0.24319597,0,0,0.24319597,2829.3544,202.72614)"
         style="fill:#ffe3b5;fill-opacity:1;stroke:none;stroke-opacity:1">
        <path
           id="path16"
           style="font-weight:bold;font-size:554.802px;font-family:'DejaVu Sans';-inkscape-font-specification:'DejaVu Sans Bold';fill:#ffe3b5;fill-opacity:1;stroke:none;stroke-width:6.25;stroke-opacity:1"
           d="M -676.02404,5.6568542 V 66.609979 h -18.69141 c -25.46454,0 -42.07991,3.971586 -49.8457,11.917969 -7.58518,7.765783 -11.37891,24.472042 -11.37891,50.117192 v 44.96875 c 0,28.35414 -4.06247,48.94305 -12.18945,61.76562 -8.12699,12.82257 -22.12428,21.49087 -41.99023,26.00586 20.04655,4.87619 34.04384,13.72625 41.99023,26.54883 8.12698,12.82257 12.18945,33.3206 12.18945,61.49414 v 44.96875 c 0,25.82575 3.79373,42.62289 11.37891,50.38867 7.76579,7.94639 24.38116,11.91797 49.8457,11.91797 h 18.69141 v 60.95312 h -58.78516 c -39.37071,0 -68.08652,-7.94707 -86.14648,-23.83984 -18.05996,-15.89277 -27.08985,-41.26732 -27.08985,-76.12305 v -52.01172 c 0,-27.08994 -4.87652,-45.87288 -14.6289,-56.34765 -9.75238,-10.65538 -27.45056,-15.98242 -53.09571,-15.98242 h -16.52539 v 224.17968 h -91.10937 V 232.94201 h 91.10937 16.52539 c 25.64515,0 43.34333,-5.23812 53.09571,-15.71289 9.75238,-10.47478 14.6289,-29.25772 14.6289,-56.34766 v -55.5332 c 0,-34.855726 9.02989,-60.139396 27.08985,-75.851562 18.05996,-15.892766 46.77577,-23.8398438 86.14648,-23.8398438 z"
           transform="scale(-1,1)" />
        <path
           id="path17"
           style="fill:#ffe3b5;fill-opacity:1;stroke:none;stroke-width:5.89086;stroke-dasharray:none;stroke-opacity:1;paint-order:normal"
           d="m 977.84981,198.20277 c 0,0 1.94153,-35.29009 45.55499,-78.90358 -43.61346,-43.613497 -45.55499,-78.903575 -45.55499,-78.903575 0,0 -1.94144,35.290078 -45.55498,78.903575 43.61354,43.61349 45.55498,78.90358 45.55498,78.90358 z"
           sodipodi:nodetypes="ccccc" />
      </g>
    </g>
    <g
       id="g19"
       transform="translate(1232.2872)"
       style="fill:#5d4f4b;fill-opacity:1;stroke:#ffe3b5;stroke-opacity:1">
      <path
         id="path18"
         style="font-weight:bold;font-size:554.802px;font-family:'DejaVu Sans';-inkscape-font-specification:'DejaVu Sans Bold';fill:#5d4f4b;stroke-width:6.25;fill-opacity:1;stroke:#ffe3b5;stroke-opacity:1"
         d="M -676.02404,5.6568542 V 66.609979 h -18.69141 c -25.46454,0 -42.07991,3.971586 -49.8457,11.917969 -7.58518,7.765783 -11.37891,24.472042 -11.37891,50.117192 v 44.96875 c 0,28.35414 -4.06247,48.94305 -12.18945,61.76562 -8.12699,12.82257 -22.12428,21.49087 -41.99023,26.00586 20.04655,4.87619 34.04384,13.72625 41.99023,26.54883 8.12698,12.82257 12.18945,33.3206 12.18945,61.49414 v 44.96875 c 0,25.82575 3.79373,42.62289 11.37891,50.38867 7.76579,7.94639 24.38116,11.91797 49.8457,11.91797 h 18.69141 v 60.95312 h -58.78516 c -39.37071,0 -68.08652,-7.94707 -86.14648,-23.83984 -18.05996,-15.89277 -27.08985,-41.26732 -27.08985,-76.12305 v -52.01172 c 0,-27.08994 -4.87652,-45.87288 -14.6289,-56.34765 -9.75238,-10.65538 -27.45056,-15.98242 -53.09571,-15.98242 h -16.52539 v 224.17968 h -91.10937 V 232.94201 h 91.10937 16.52539 c 25.64515,0 43.34333,-5.23812 53.09571,-15.71289 9.75238,-10.47478 14.6289,-29.25772 14.6289,-56.34766 v -55.5332 c 0,-34.855726 9.02989,-60.139396 27.08985,-75.851562 18.05996,-15.892766 46.77577,-23.8398438 86.14648,-23.8398438 z"
         transform="scale(-1,1)" />
      <path
         id="path19"
         style="fill:#5d4f4b;fill-opacity:1;stroke:#ffe3b5;stroke-width:5.89086;stroke-dasharray:none;stroke-opacity:1;paint-order:normal"
         d="m 977.84981,198.20277 c 0,0 1.94153,-35.29009 45.55499,-78.90358 -43.61346,-43.613497 -45.55499,-78.903575 -45.55499,-78.903575 0,0 -1.94144,35.290078 -45.55498,78.903575 43.61354,43.61349 45.55498,78.90358 45.55498,78.90358 z"
         sodipodi:nodetypes="ccccc" />
    </g>
    <g
       id="g21"
       transform="translate(1232.2872,605.28339)"
       style="fill:#f2ebe0;fill-opacity:1;stroke:#5a0000;stroke-opacity:1">
      <path
         id="path20"
         style="font-weight:bold;font-size:554.802px;font-family:'DejaVu Sans';-inkscape-font-specification:'DejaVu Sans Bold';fill:#f2ebe0;fill-opacity:1;stroke-width:6.25;stroke:#5a0000;stroke-opacity:1"
         d="M -676.02404,5.6568542 V 66.609979 h -18.69141 c -25.46454,0 -42.07991,3.971586 -49.8457,11.917969 -7.58518,7.765783 -11.37891,24.472042 -11.37891,50.117192 v 44.96875 c 0,28.35414 -4.06247,48.94305 -12.18945,61.76562 -8.12699,12.82257 -22.12428,21.49087 -41.99023,26.00586 20.04655,4.87619 34.04384,13.72625 41.99023,26.54883 8.12698,12.82257 12.18945,33.3206 12.18945,61.49414 v 44.96875 c 0,25.82575 3.79373,42.62289 11.37891,50.38867 7.76579,7.94639 24.38116,11.91797 49.8457,11.91797 h 18.69141 v 60.95312 h -58.78516 c -39.37071,0 -68.08652,-7.94707 -86.14648,-23.83984 -18.05996,-15.89277 -27.08985,-41.26732 -27.08985,-76.12305 v -52.01172 c 0,-27.08994 -4.87652,-45.87288 -14.6289,-56.34765 -9.75238,-10.65538 -27.45056,-15.98242 -53.09571,-15.98242 h -16.52539 v 224.17968 h -91.10937 V 232.94201 h 91.10937 16.52539 c 25.64515,0 43.34333,-5.23812 53.09571,-15.71289 9.75238,-10.47478 14.6289,-29.25772 14.6289,-56.34766 v -55.5332 c 0,-34.855726 9.02989,-60.139396 27.08985,-75.851562 18.05996,-15.892766 46.77577,-23.8398438 86.14648,-23.8398438 z"
         transform="scale(-1,1)" />
      <path
         id="path21"
         style="fill:#f2ebe0;fill-opacity:1;stroke:#5a0000;stroke-width:5.89086;stroke-dasharray:none;stroke-opacity:1;paint-order:normal"
         d="m 977.84981,198.20277 c 0,0 1.94153,-35.29009 45.55499,-78.90358 -43.61346,-43.613497 -45.55499,-78.903575 -45.55499,-78.903575 0,0 -1.94144,35.290078 -45.55498,78.903575 43.61354,43.61349 45.55498,78.90358 45.55498,78.90358 z"
         sodipodi:nodetypes="ccccc" />
    </g>
  </g>
</svg>
