<?xml version="1.0" encoding="UTF-8" standalone="no"?>
<!-- Created with Inkscape (http://www.inkscape.org/) -->

<svg
   width="512"
   height="512"
   viewBox="0 0 512 512"
   version="1.1"
   id="svg1"
   inkscape:version="1.4.3 (0d15f75, 2025-12-25)"
   sodipodi:docname="logo-artboard.svg"
   inkscape:export-filename="logo.svg"
   inkscape:export-xdpi="96"
   inkscape:export-ydpi="96"
   xmlns:inkscape="http://www.inkscape.org/namespaces/inkscape"
   xmlns:sodipodi="http://sodipodi.sourceforge.net/DTD/sodipodi-0.dtd"
   xmlns="http://www.w3.org/2000/svg"
   xmlns:svg="http://www.w3.org/2000/svg">
  <sodipodi:namedview
     id="namedview1"
     pagecolor="#505050"
     bordercolor="#eeeeee"
     borderopacity="1"
     inkscape:showpageshadow="0"
     inkscape:pageopacity="0"
     inkscape:pagecheckerboard="0"
     inkscape:deskcolor="#505050"
     inkscape:document-units="px"
     showguides="false"
     showgrid="false"
     inkscape:zoom="0.5"
     inkscape:cx="1123"
     inkscape:cy="-176"
     inkscape:window-width="2532"
     inkscape:window-height="1363"
     inkscape:window-x="0"
     inkscape:window-y="0"
     inkscape:window-maximized="1"
     inkscape:current-layer="layer1">
    <inkscape:page
       x="0"
       y="0"
       width="512"
       height="512"
       id="page44"
       margin="0"
       bleed="0" />
    <inkscape:page
       x="0"
       y="-605.28339"
       width="512"
       height="512"
       id="page45"
       margin="0"
       bleed="0" />
    <inkscape:grid
       id="grid49"
       units="px"
       originx="-610.25403"
       originy="-605.28339"
       spacingx="1"
       spacingy="1"
       empcolor="#0099e5"
       empopacity="0.30196078"
       color="#0099e5"
       opacity="0.14901961"
       empspacing="5"
       enabled="false"
       visible="false"
       dotted="false" />
    <inkscape:grid
       type="modular"
       id="grid50"
       units="px"
       originx="-610.25403"
       originy="-605.28339"
       spacingx="151.1811"
       spacingy="151.1811"
       empcolor="#0047cb"
       empopacity="0.30196078"
       color="#0099e5"
       opacity="0.14901961"
       empspacing="0"
       marginx="0"
       marginy="0"
       gapx="37.795276"
       gapy="37.795276"
       enabled="true"
       visible="false" />
    <inkscape:grid
       id="grid51"
       units="px"
       originx="-610.25403"
       originy="-605.28339"
       spacingx="1"
       spacingy="1"
       empcolor="#0099e5"
       empopacity="0.30196078"
       color="#0099e5"
       opacity="0.14901961"
       empspacing="5"
       enabled="true"
       visible="false" />
    <inkscape:page
       x="578.09082"
       y="-605.28339"
       width="512"
       height="512"
       id="page54"
       margin="0"
       bleed="0"
       inkscape:export-filename="../../public/logo.svg"
       inkscape:export-xdpi="96"
       inkscape:export-ydpi="96" />
    <inkscape:page
       x="578.09082"
       y="0"
       width="512"
       height="512"
       id="page55"
       margin="0"
       bleed="0"
       inkscape:export-filename="../../public/logo.svg"
       inkscape:export-xdpi="96"
       inkscape:export-ydpi="96" />
    <inkscape:page
       x="1158.0907"
       y="-605.28339"
       width="1200"
       height="630"
       id="page56"
       margin="0"
       bleed="0"
       inkscape:export-filename="thumbnail.png"
       inkscape:export-xdpi="96"
       inkscape:export-ydpi="96" />
  </sodipodi:namedview>
  <defs
     id="defs1">
    <clipPath
       clipPathUnits="userSpaceOnUse"
       id="clipPath16">
      <circle
         style="fill:#d6c4b0;fill-opacity:1;stroke:#5a0000;stroke-width:0;stroke-linecap:butt;stroke-linejoin:miter;stroke-dasharray:none;stroke-opacity:1;paint-order:normal"
         id="circle17"
         cx="256"
         cy="256"
         r="256" />
    </clipPath>
    <clipPath
       clipPathUnits="userSpaceOnUse"
       id="clipPath76">
      <g
         id="g78"
         style="fill:#d6c4b0;fill-opacity:1;stroke:none;stroke-width:20;stroke-miterlimit:22;stroke-dasharray:none;stroke-opacity:1">
        <path
           id="path77"
           style="font-weight:bold;font-size:554.802px;font-family:'DejaVu Sans';-inkscape-font-specification:'DejaVu Sans Bold';fill:#d6c4b0;fill-opacity:1;stroke:none;stroke-width:20;stroke-miterlimit:22;stroke-dasharray:none;stroke-opacity:1"
           d="m 986.81518,610.94064 c -39.37071,0 -68.08659,7.94512 -86.14649,23.83789 -18.06,15.71217 -27.08985,40.99779 -27.08985,75.85352 v 55.5332 c 0,27.08994 -4.87455,45.87287 -14.62694,56.34765 -9.7524,10.47477 -27.45246,15.71094 -53.09766,15.71094 H 789.3308 v 0.002 h -91.10937 v 196.62496 c 0,36.9043 43.72947,87.9649 91.10937,87.9649 V 895.65748 h 16.52344 c 25.6452,0 43.34526,5.23616 53.09766,15.71093 9.75239,10.47478 14.62694,29.25772 14.62694,56.34766 v 55.53323 c 0,34.8557 9.02985,60.1413 27.08985,75.8535 18.0599,15.8928 46.77578,23.8379 86.14649,23.8379 h 58.78512 c 0,0 -55.26242,-19.1882 -70.09371,-42.043 -14.79551,-22.7995 -9.82032,-55.3001 -9.82032,-80.94531 v -44.96874 c 0,-28.35414 -4.0645,-48.94306 -12.1914,-61.76563 -8.127,-12.82257 -22.12238,-21.49087 -41.98828,-26.00586 l -1.12305,-0.27192 1.12305,-0.27105 c 19.8659,-4.51499 33.86128,-13.18328 41.98828,-26.00585 8.1269,-12.82258 12.1914,-33.41149 12.1914,-61.76563 v -44.96875 c 0,-25.64515 -4.97519,-58.14577 9.82032,-80.94531 14.83129,-22.85483 70.09371,-42.04297 70.09371,-42.04297 z"
           sodipodi:nodetypes="scsssscccsccsssscscssssccccssccs" />
        <path
           id="path78"
           style="fill:#d6c4b0;fill-opacity:1;stroke:none;stroke-width:20;stroke-miterlimit:22;stroke-dasharray:none;stroke-opacity:1;paint-order:normal"
           d="m 743.77504,803.48608 c 0,0 -1.94151,-43.05863 -45.555,-96.27293 43.61349,-53.2143 45.555,-96.27291 45.555,-96.27291 0,0 1.9414,43.05861 45.555,96.27291 -43.6136,53.2143 -45.555,96.27293 -45.555,96.27293 z"
           sodipodi:nodetypes="ccccc" />
      </g>
    </clipPath>
    <clipPath
       clipPathUnits="userSpaceOnUse"
       id="clipPath87">
      <g
         id="g89"
         style="fill:#d6c4b0;fill-opacity:1;stroke:none;stroke-width:20;stroke-miterlimit:22;stroke-dasharray:none;stroke-opacity:1"
         transform="translate(578.09153,-4.3e-4)">
        <path
           id="path88"
           style="font-weight:bold;font-size:554.802px;font-family:'DejaVu Sans';-inkscape-font-specification:'DejaVu Sans Bold';fill:#d6c4b0;fill-opacity:1;stroke:none;stroke-width:20;stroke-miterlimit:22;stroke-dasharray:none;stroke-opacity:1"
           d="m 986.81518,610.94064 c -39.37071,0 -68.08659,7.94512 -86.14649,23.83789 -18.06,15.71217 -27.08985,40.99779 -27.08985,75.85352 v 55.5332 c 0,27.08994 -4.87455,45.87287 -14.62694,56.34765 -9.7524,10.47477 -27.45246,15.71094 -53.09766,15.71094 H 789.3308 v 0.002 h -91.10937 v 196.62496 c 0,36.9043 43.72947,87.9649 91.10937,87.9649 V 895.65748 h 16.52344 c 25.6452,0 43.34526,5.23616 53.09766,15.71093 9.75239,10.47478 14.62694,29.25772 14.62694,56.34766 v 55.53323 c 0,34.8557 9.02985,60.1413 27.08985,75.8535 18.0599,15.8928 46.77578,23.8379 86.14649,23.8379 h 58.78512 c 0,0 -55.26242,-19.1882 -70.09371,-42.043 -14.79551,-22.7995 -9.82032,-55.3001 -9.82032,-80.94531 v -44.96874 c 0,-28.35414 -4.0645,-48.94306 -12.1914,-61.76563 -8.127,-12.82257 -22.12238,-21.49087 -41.98828,-26.00586 l -1.12305,-0.27192 1.12305,-0.27105 c 19.8659,-4.51499 33.86128,-13.18328 41.98828,-26.00585 8.1269,-12.82258 12.1914,-33.41149 12.1914,-61.76563 v -44.96875 c 0,-25.64515 -4.97519,-58.14577 9.82032,-80.94531 14.83129,-22.85483 70.09371,-42.04297 70.09371,-42.04297 z"
           sodipodi:nodetypes="scsssscccsccsssscscssssccccssccs" />
        <path
           id="path89"
           style="fill:#d6c4b0;fill-opacity:1;stroke:none;stroke-width:20;stroke-miterlimit:22;stroke-dasharray:none;stroke-opacity:1;paint-order:normal"
           d="m 743.77504,803.48608 c 0,0 -1.94151,-43.05863 -45.555,-96.27293 43.61349,-53.2143 45.555,-96.27291 45.555,-96.27291 0,0 1.9414,43.05861 45.555,96.27291 -43.6136,53.2143 -45.555,96.27293 -45.555,96.27293 z"
           sodipodi:nodetypes="ccccc" />
      </g>
    </clipPath>
    <clipPath
       clipPathUnits="userSpaceOnUse"
       id="clipPath89">
      <g
         id="g91"
         style="fill:#d6c4b0;fill-opacity:1;stroke:none;stroke-width:20;stroke-miterlimit:22;stroke-dasharray:none;stroke-opacity:1"
         transform="translate(578.09153,-4.3e-4)">
        <path
           id="path90"
           style="font-weight:bold;font-size:554.802px;font-family:'DejaVu Sans';-inkscape-font-specification:'DejaVu Sans Bold';fill:#d6c4b0;fill-opacity:1;stroke:none;stroke-width:20;stroke-miterlimit:22;stroke-dasharray:none;stroke-opacity:1"
           d="m 986.81518,610.94064 c -39.37071,0 -68.08659,7.94512 -86.14649,23.83789 -18.06,15.71217 -27.08985,40.99779 -27.08985,75.85352 v 55.5332 c 0,27.08994 -4.87455,45.87287 -14.62694,56.34765 -9.7524,10.47477 -27.45246,15.71094 -53.09766,15.71094 H 789.3308 v 0.002 h -91.10937 v 196.62496 c 0,36.9043 43.72947,87.9649 91.10937,87.9649 V 895.65748 h 16.52344 c 25.6452,0 43.34526,5.23616 53.09766,15.71093 9.75239,10.47478 14.62694,29.25772 14.62694,56.34766 v 55.53323 c 0,34.8557 9.02985,60.1413 27.08985,75.8535 18.0599,15.8928 46.77578,23.8379 86.14649,23.8379 h 58.78512 c 0,0 -55.26242,-19.1882 -70.09371,-42.043 -14.79551,-22.7995 -9.82032,-55.3001 -9.82032,-80.94531 v -44.96874 c 0,-28.35414 -4.0645,-48.94306 -12.1914,-61.76563 -8.127,-12.82257 -22.12238,-21.49087 -41.98828,-26.00586 l -1.12305,-0.27192 1.12305,-0.27105 c 19.8659,-4.51499 33.86128,-13.18328 41.98828,-26.00585 8.1269,-12.82258 12.1914,-33.41149 12.1914,-61.76563 v -44.96875 c 0,-25.64515 -4.97519,-58.14577 9.82032,-80.94531 14.83129,-22.85483 70.09371,-42.04297 70.09371,-42.04297 z"
           sodipodi:nodetypes="scsssscccsccsssscscssssccccssccs" />
        <path
           id="path91"
           style="fill:#d6c4b0;fill-opacity:1;stroke:none;stroke-width:20;stroke-miterlimit:22;stroke-dasharray:none;stroke-opacity:1;paint-order:normal"
           d="m 743.77504,803.48608 c 0,0 -1.94151,-43.05863 -45.555,-96.27293 43.61349,-53.2143 45.555,-96.27291 45.555,-96.27291 0,0 1.9414,43.05861 45.555,96.27291 -43.6136,53.2143 -45.555,96.27293 -45.555,96.27293 z"
           sodipodi:nodetypes="ccccc" />
      </g>
    </clipPath>
  </defs>
  <g
     inkscape:label="Layer 1"
     inkscape:groupmode="layer"
     id="layer1"
     transform="translate(-615.91088,-610.94024)">
    <g
       id="g81">
      <path
         style="font-weight:bold;font-size:554.802px;font-family:'DejaVu Sans';-inkscape-font-specification:'DejaVu Sans Bold';fill:#352925;stroke-width:6.25"
         d="m 332.19209,-278.68601 v 60.95237 h -58.78522 q -59.056,0 -86.146,-23.83915 -27.0899,-23.83915 -27.0899,-76.12274 v -52.01269 q 0,-40.63491 -14.6286,-56.34707 -14.6285,-15.98307 -53.096299,-15.98307 h -16.5248 v -60.41057 h 16.5248 q 38.467799,0 53.096299,-15.71216 14.6286,-15.71217 14.6286,-56.34708 v -55.53438 q 0,-52.28359 27.0899,-75.85184 27.09,-23.83915 86.146,-23.83915 h 58.78522 v 60.95237 h -18.69206 q -38.19686,0 -49.84546,11.91958 -11.3778,11.64867 -11.3778,50.11639 v 44.9693 q 0,42.53121 -12.1905,61.76507 -12.1905,19.23385 -41.9894,26.00634 30.0698,7.31428 41.9894,26.54814 12.1905,19.23386 12.1905,61.49417 v 44.9693 q 0,38.73862 11.3778,50.38729 11.6486,11.91958 49.84546,11.91958 z"
         id="path1"
         aria-label="{" />
      <path
         d="m -15.188729,-502.44893 h 91.11 v 284.59031 h -91.11 z"
         id="path2"
         style="font-weight:bold;font-size:531.654px;font-family:'DejaVu Sans';-inkscape-font-specification:'DejaVu Sans Bold';fill:#352925;fill-opacity:1;stroke:none;stroke-width:6.38715;stroke-dasharray:none;stroke-opacity:1;paint-order:normal"
         aria-label="i"
         sodipodi:nodetypes="ccccc" />
      <path
         id="path3"
         style="fill:#352925;fill-opacity:1;stroke:none;stroke-width:6.50702;stroke-dasharray:none;stroke-opacity:1;paint-order:normal"
         d="m 30.366271,-537.1877 c 0,0 -1.9415,-43.05863 -45.555,-96.27293 43.6135,-53.2143 45.555,-96.27291 45.555,-96.27291 0,0 1.9414,43.05861 45.555,96.27291 -43.6136,53.2143 -45.555,96.27293 -45.555,96.27293 z"
         sodipodi:nodetypes="ccccc" />
    </g>
    <g
       id="g83">
      <path
         id="path10"
         style="font-weight:bold;font-size:554.802px;font-family:'DejaVu Sans';-inkscape-font-specification:'DejaVu Sans Bold';fill:#352925;stroke-width:6.25"
         d="m 1297.9258,-729.73359 c 0,0 -55.2624,19.18814 -70.0937,42.04297 -14.7955,22.79954 -9.8204,55.30016 -9.8204,80.94531 v 44.96875 c 0,28.35414 -4.0644,48.94306 -12.1914,61.76563 -8.127,12.82257 -22.1223,21.49087 -41.9882,26.00586 0.3091,0.0752 0.5511,0.1944 0.8574,0.27148 h -123.0332 v -28.71679 h 16.5234 c 25.6452,0 43.3453,-5.23617 53.0977,-15.71094 9.7523,-10.47478 14.6269,-29.25772 14.6269,-56.34766 v -55.5332 c 0,-34.85573 9.0299,-60.14135 27.0899,-75.85352 18.0599,-15.89277 46.7757,-23.83789 86.1464,-23.83789 z" />
      <path
         d="m 950.54547,-502.44951 h 91.10993 v 284.59031 h -91.10993 z"
         id="path11"
         style="font-weight:bold;font-size:531.654px;font-family:'DejaVu Sans';-inkscape-font-specification:'DejaVu Sans Bold';display:inline;fill:#352925;fill-opacity:1;stroke:none;stroke-width:6.38715;stroke-dasharray:none;stroke-opacity:1;paint-order:normal"
         aria-label="i"
         sodipodi:nodetypes="ccccc" />
      <path
         id="path12"
         style="fill:#352925;fill-opacity:1;stroke:none;stroke-width:6.50702;stroke-dasharray:none;stroke-opacity:1;paint-order:normal"
         d="m 996.10047,-537.18828 c 0,0 -1.9415,-43.05863 -45.555,-96.27293 43.6135,-53.2143 45.555,-96.27291 45.555,-96.27291 0,0 1.9414,43.05861 45.55493,96.27291 -43.61353,53.2143 -45.55493,96.27293 -45.55493,96.27293 z"
         sodipodi:nodetypes="ccccc" />
      <path
         id="path13"
         style="font-weight:bold;font-size:554.802px;font-family:'DejaVu Sans';-inkscape-font-specification:'DejaVu Sans Bold';fill:#352925;stroke-width:6.25"
         d="m 1297.9258,-217.73359 c 0,0 -55.2624,-19.18814 -70.0937,-42.04297 -14.7955,-22.79954 -9.8204,-55.30016 -9.8204,-80.94531 v -44.96875 c 0,-28.35414 -4.0644,-48.94306 -12.1914,-61.76563 -8.127,-12.82257 -22.1223,-21.49087 -41.9882,-26.00586 0.3091,-0.0752 0.5511,-0.1944 0.8574,-0.27148 h -123.0332 v 28.71679 h 16.5234 c 25.6452,0 43.3453,5.23617 53.0977,15.71094 9.7523,10.47478 14.6269,29.25772 14.6269,56.34766 v 55.5332 c 0,34.85573 9.0299,60.14135 27.0899,75.85352 18.0599,15.89277 46.7757,23.83789 86.1464,23.83789 z" />
    </g>
    <g
       id="g82">
      <path
         id="path23"
         style="font-weight:bold;font-size:554.802px;font-family:'DejaVu Sans';-inkscape-font-specification:'DejaVu Sans Bold';fill:#352925;stroke-width:6.25"
         d="m 815.05894,-729.73359 c 0,0 -55.26239,19.18814 -70.09375,42.04297 -14.79547,22.79954 -9.82031,55.30016 -9.82031,80.94531 v 44.96875 c 0,28.35414 -4.06442,48.94306 -12.1914,61.76563 -8.12699,12.82257 -22.12233,21.49087 -41.98828,26.00586 0.30913,0.0752 0.55117,0.1944 0.85742,0.27148 h -123.0332 v -28.71679 h 16.52344 c 25.64515,0 43.34527,-5.23617 53.09765,-15.71094 9.75238,-10.47478 14.62695,-29.25772 14.62695,-56.34766 v -55.5332 c 0,-34.85573 9.02989,-60.14135 27.08985,-75.85352 18.05996,-15.89277 46.77577,-23.83789 86.14648,-23.83789 z" />
      <path
         id="path24"
         style="fill:#352925;fill-opacity:1;stroke:none;stroke-width:6.50702;stroke-dasharray:none;stroke-opacity:1;paint-order:normal"
         d="m 513.23362,-537.18828 c 0,0 -1.9415,-43.05863 -45.555,-96.27293 43.6135,-53.2143 45.555,-96.27291 45.555,-96.27291 0,0 1.9414,43.05861 45.55497,96.27291 -43.61357,53.2143 -45.55497,96.27293 -45.55497,96.27293 z"
         sodipodi:nodetypes="ccccc" />
      <path
         id="path25"
         style="font-weight:bold;font-size:554.802px;font-family:'DejaVu Sans';-inkscape-font-specification:'DejaVu Sans Bold';fill:#352925;stroke-width:6.25"
         d="m 815.05894,-217.73359 c 0,0 -55.26239,-19.18814 -70.09375,-42.04297 -14.79547,-22.79954 -9.82031,-55.30016 -9.82031,-80.94531 v -44.96875 c 0,-28.35414 -4.06442,-48.94306 -12.1914,-61.76563 -8.12699,-12.82257 -22.12233,-21.49087 -41.98828,-26.00586 0.30913,-0.0752 0.55117,-0.1944 0.85742,-0.27148 h -123.0332 v 28.71679 h 16.52344 c 25.64515,0 43.34527,5.23617 53.09765,15.71094 9.75238,10.47478 14.62695,29.25772 14.62695,56.34766 v 55.5332 c 0,34.85573 9.02989,60.14135 27.08985,75.85352 18.05996,15.89277 46.77577,23.83789 86.14648,23.83789 z" />
      <path
         id="path26"
         style="font-weight:bold;font-size:554.802px;font-family:'DejaVu Sans';-inkscape-font-specification:'DejaVu Sans Bold';fill:#352925;fill-opacity:1;stroke-width:6.25"
         d="m 561.45348,-380.06953 v 39.34766 c 0.0625,30.94845 -3.99295,45.1889 11.97861,80.13449 17.22707,37.69261 66.60397,42.85379 66.60397,42.85379 h -57.45367 c -39.37071,0 -68.08653,-7.94512 -86.14649,-23.83789 -18.05996,-15.71217 -27.08984,-40.99778 -27.08984,-75.85351 v -55.53321 c 0,-2.43782 -0.0382,-4.80805 -0.11719,-7.11133 z"
         sodipodi:nodetypes="ccscscsscc" />
      <rect
         style="fill:#352925;fill-opacity:1;stroke-width:9.97668"
         id="rect26"
         width="92.287109"
         height="122.38083"
         x="-561.51599"
         y="-502.45038"
         transform="scale(-1,1)" />
    </g>
    <g
       id="g84">
      <path
         id="path44"
         style="font-weight:bold;font-size:554.802px;font-family:'DejaVu Sans';-inkscape-font-specification:'DejaVu Sans Bold';fill:#352925;stroke-width:6.25"
         d="m 1773.1016,-729.73359 c 0,0 -55.2624,19.18814 -70.0937,42.04297 -14.7955,22.79954 -9.8204,55.30016 -9.8204,80.94531 v 44.96875 c 0,28.35414 -4.0644,48.94306 -12.1914,61.76563 -8.127,12.82257 -22.1223,21.49087 -41.9882,26.00586 0.3091,0.0752 0.5511,0.1944 0.8574,0.27148 h -123.0332 v -28.71679 h 16.5234 c 25.6452,0 43.3453,-5.23617 53.0977,-15.71094 9.7523,-10.47478 14.6269,-29.25772 14.6269,-56.34766 v -55.5332 c 0,-34.85573 9.0299,-60.14135 27.0899,-75.85352 18.0599,-15.89277 46.7757,-23.83789 86.1464,-23.83789 z"
         sodipodi:nodetypes="cssssccccsssscsc" />
      <path
         d="m 1425.7212,-502.44951 h 91.11 v 284.59031 c -47.3799,0 -91.11,-51.0602 -91.11,-87.9645 z"
         id="path45"
         style="font-weight:bold;font-size:531.654px;font-family:'DejaVu Sans';-inkscape-font-specification:'DejaVu Sans Bold';display:inline;fill:#352925;fill-opacity:1;stroke:none;stroke-width:6.38715;stroke-dasharray:none;stroke-opacity:1;paint-order:normal"
         aria-label="i"
         sodipodi:nodetypes="ccccc" />
      <path
         id="path46"
         style="fill:#352925;fill-opacity:1;stroke:none;stroke-width:6.50702;stroke-dasharray:none;stroke-opacity:1;paint-order:normal"
         d="m 1471.2762,-537.18828 c 0,0 -1.9415,-43.05863 -45.555,-96.27293 43.6135,-53.2143 45.555,-96.27291 45.555,-96.27291 0,0 1.9414,43.05861 45.555,96.27291 -43.6136,53.2143 -45.555,96.27293 -45.555,96.27293 z"
         sodipodi:nodetypes="ccccc" />
      <path
         id="path47"
         style="font-weight:bold;font-size:554.802px;font-family:'DejaVu Sans';-inkscape-font-specification:'DejaVu Sans Bold';fill:#352925;stroke-width:6.25"
         d="m 1773.1016,-217.73359 c 0,0 -55.2624,-19.18814 -70.0937,-42.04297 -14.7955,-22.79954 -9.8204,-55.30016 -9.8204,-80.94531 v -44.96875 c 0,-28.35414 -4.0644,-48.94306 -12.1914,-61.76563 -8.127,-12.82257 -22.1223,-21.49087 -41.9882,-26.00586 0.3091,-0.0752 0.5511,-0.1944 0.8574,-0.27148 h -123.0332 v 28.71679 h 16.5234 c 25.6452,0 43.3453,5.23617 53.0977,15.71094 9.7523,10.47478 14.6269,29.25772 14.6269,56.34766 v 55.5332 c 0,34.85573 9.0299,60.14135 27.0899,75.85352 18.0599,15.89277 46.7757,23.83789 86.1464,23.83789 z"
         sodipodi:nodetypes="cssssccccsssscsc" />
    </g>
    <g
       id="g56">
      <path
         id="path48"
         style="font-weight:bold;font-size:554.802px;font-family:'DejaVu Sans';-inkscape-font-specification:'DejaVu Sans Bold';fill:#d6c4b0;fill-opacity:1;stroke-width:6.25"
         d="m 986.81518,610.94064 c -39.37071,0 -68.08659,7.94512 -86.14649,23.83789 -18.06,15.71217 -27.08985,40.99779 -27.08985,75.85352 v 55.5332 c 0,27.08994 -4.87455,45.87287 -14.62694,56.34765 -9.7524,10.47477 -27.45246,15.71094 -53.09766,15.71094 H 789.3308 v 0.002 h -91.10937 v 196.62496 c 0,36.9043 43.72947,87.9649 91.10937,87.9649 V 895.65748 h 16.52344 c 25.6452,0 43.34526,5.23616 53.09766,15.71093 9.75239,10.47478 14.62694,29.25772 14.62694,56.34766 v 55.53323 c 0,34.8557 9.02985,60.1413 27.08985,75.8535 18.0599,15.8928 46.77578,23.8379 86.14649,23.8379 h 58.78512 c 0,0 -55.26242,-19.1882 -70.09371,-42.043 -14.79551,-22.7995 -9.82032,-55.3001 -9.82032,-80.94531 v -44.96874 c 0,-28.35414 -4.0645,-48.94306 -12.1914,-61.76563 -8.127,-12.82257 -22.12238,-21.49087 -41.98828,-26.00586 l -1.12305,-0.27192 1.12305,-0.27105 c 19.8659,-4.51499 33.86128,-13.18328 41.98828,-26.00585 8.1269,-12.82258 12.1914,-33.41149 12.1914,-61.76563 v -44.96875 c 0,-25.64515 -4.97519,-58.14577 9.82032,-80.94531 14.83129,-22.85483 70.09371,-42.04297 70.09371,-42.04297 z"
         sodipodi:nodetypes="scsssscccsccsssscscssssccccssccs" />
      <path
         id="path49"
         style="fill:#d6c4b0;fill-opacity:1;stroke:none;stroke-width:6.50702;stroke-dasharray:none;stroke-opacity:1;paint-order:normal"
         d="m 743.77504,803.48608 c 0,0 -1.94151,-43.05863 -45.555,-96.27293 43.61349,-53.2143 45.555,-96.27291 45.555,-96.27291 0,0 1.9414,43.05861 45.555,96.27291 -43.6136,53.2143 -45.555,96.27293 -45.555,96.27293 z"
         sodipodi:nodetypes="ccccc" />
    </g>
    <g
       id="g85">
      <rect
         style="fill:#352925;fill-opacity:1;stroke:none;stroke-width:10;stroke-linecap:butt;stroke-linejoin:miter;stroke-dasharray:none;stroke-opacity:1;paint-order:normal"
         id="rect56"
         width="1200"
         height="630"
         x="1774.0015"
         y="5.6568542" />
      <text
         xml:space="preserve"
         style="font-style:normal;font-variant:normal;font-weight:bold;font-stretch:normal;font-size:43.6774px;font-family:'DejaVu Sans';-inkscape-font-specification:'DejaVu Sans Bold';font-variant-ligatures:normal;font-variant-caps:normal;font-variant-numeric:normal;font-variant-east-asian:normal;writing-mode:lr-tb;direction:ltr;fill:#ffe3b5;fill-opacity:1;stroke:none;stroke-width:0.821542;stroke-linecap:butt;stroke-linejoin:miter;stroke-dasharray:none;stroke-opacity:1;paint-order:normal"
         x="2188.8098"
         y="395.85352"
         id="text57"><tspan
           sodipodi:role="line"
           id="tspan57"
           x="2188.8098"
           y="395.85352"
           style="font-style:normal;font-variant:normal;font-weight:bold;font-stretch:normal;font-size:43.6774px;font-family:'Spectral SC';-inkscape-font-specification:'Spectral SC, Bold';font-variant-ligatures:normal;font-variant-caps:normal;font-variant-numeric:normal;font-variant-east-asian:normal;stroke-width:0.821542">Kieran CANTER</tspan></text>
      <text
         xml:space="preserve"
         style="font-style:normal;font-variant:normal;font-weight:bold;font-stretch:normal;font-size:29.9543px;font-family:'DejaVu Sans';-inkscape-font-specification:'DejaVu Sans Bold';font-variant-ligatures:normal;font-variant-caps:normal;font-variant-numeric:normal;font-variant-east-asian:normal;writing-mode:lr-tb;direction:ltr;fill:#ffe3b5;fill-opacity:1;stroke:none;stroke-width:0.563419;stroke-linecap:butt;stroke-linejoin:miter;stroke-dasharray:none;stroke-opacity:1;paint-order:normal"
         x="2220.0195"
         y="436.75684"
         id="text58"><tspan
           sodipodi:role="line"
           id="tspan58"
           x="2220.0195"
           y="436.75684"
           style="font-style:normal;font-variant:normal;font-weight:bold;font-stretch:normal;font-size:29.9543px;font-family:'Spectral SC';-inkscape-font-specification:'Spectral SC, Bold';font-variant-ligatures:normal;font-variant-caps:normal;font-variant-numeric:normal;font-variant-east-asian:normal;stroke-width:0.563419">Software Engineer</tspan></text>
      <g
         id="g58"
         transform="matrix(0.24801151,0,0,0.24801151,2011.555,200.38874)"
         style="display:inline;fill:#ffe3b5;fill-opacity:1">
        <path
           id="path57"
           style="font-weight:bold;font-size:554.802px;font-family:'DejaVu Sans';-inkscape-font-specification:'DejaVu Sans Bold';fill:#ffe3b5;fill-opacity:1;stroke-width:6.25"
           d="m 1576.3152,5.6568538 c -39.3707,0 -68.0866,7.9451202 -86.1465,23.8378902 -18.06,15.71217 -27.0899,40.99779 -27.0899,75.853516 v 55.5332 c 0,27.08994 -4.8745,45.87287 -14.6269,56.34765 -9.7524,10.47477 -27.4525,15.71094 -53.0977,15.71094 h -16.5234 v 0.002 h -91.1094 v 196.625 c 0,36.9043 43.7295,87.96484 91.1094,87.96484 v -227.1582 h 16.5234 c 25.6452,0 43.3453,5.23616 53.0977,15.71093 9.7524,10.47478 14.6269,29.25772 14.6269,56.34766 v 55.5332 c 0,34.85573 9.0299,60.14135 27.0899,75.85352 18.0599,15.89277 46.7758,23.83789 86.1465,23.83789 h 58.7851 c 0,0 -55.2624,-19.18814 -70.0937,-42.04297 -14.7955,-22.79954 -9.8203,-55.30016 -9.8203,-80.94531 v -44.96875 c 0,-28.35414 -4.0645,-48.94306 -12.1914,-61.76563 -8.127,-12.82257 -22.1224,-21.49087 -41.9883,-26.00586 0.3091,-0.0752 0.5511,-0.19438 0.8574,-0.27148 -0.3063,-0.0771 -0.5483,-0.19629 -0.8574,-0.27149 19.8659,-4.51499 33.8613,-13.18328 41.9883,-26.00585 8.1269,-12.82258 12.1914,-33.41149 12.1914,-61.76563 v -44.96875 c 0,-25.64515 -4.9752,-58.145766 9.8203,-80.945306 14.8313,-22.85483 70.0937,-42.0429702 70.0937,-42.0429702 z" />
        <path
           id="path58"
           style="fill:#ffe3b5;fill-opacity:1;stroke:none;stroke-width:6.50702;stroke-dasharray:none;stroke-opacity:1;paint-order:normal"
           d="m 1333.275,198.20229 c 0,0 -1.9415,-43.05863 -45.555,-96.27293 43.6135,-53.214296 45.555,-96.2729062 45.555,-96.2729062 0,0 1.9414,43.0586102 45.555,96.2729062 -43.6136,53.2143 -45.555,96.27293 -45.555,96.27293 z"
           sodipodi:nodetypes="ccccc" />
      </g>
    </g>
    <g
       id="g70"
       transform="translate(7.1e-4,-605.28362)"
       style="fill:#352925;fill-opacity:1">
      <path
         id="path69"
         style="font-weight:bold;font-size:554.802px;font-family:'DejaVu Sans';-inkscape-font-specification:'DejaVu Sans Bold';fill:#352925;fill-opacity:1;stroke-width:6.25"
         d="m 986.81518,610.94064 c -39.37071,0 -68.08659,7.94512 -86.14649,23.83789 -18.06,15.71217 -27.08985,40.99779 -27.08985,75.85352 v 55.5332 c 0,27.08994 -4.87455,45.87287 -14.62694,56.34765 -9.7524,10.47477 -27.45246,15.71094 -53.09766,15.71094 H 789.3308 v 0.002 h -91.10937 v 196.62496 c 0,36.9043 43.72947,87.9649 91.10937,87.9649 V 895.65748 h 16.52344 c 25.6452,0 43.34526,5.23616 53.09766,15.71093 9.75239,10.47478 14.62694,29.25772 14.62694,56.34766 v 55.53323 c 0,34.8557 9.02985,60.1413 27.08985,75.8535 18.0599,15.8928 46.77578,23.8379 86.14649,23.8379 h 58.78512 c 0,0 -55.26242,-19.1882 -70.09371,-42.043 -14.79551,-22.7995 -9.82032,-55.3001 -9.82032,-80.94531 v -44.96874 c 0,-28.35414 -4.0645,-48.94306 -12.1914,-61.76563 -8.127,-12.82257 -22.12238,-21.49087 -41.98828,-26.00586 l -1.12305,-0.27192 1.12305,-0.27105 c 19.8659,-4.51499 33.86128,-13.18328 41.98828,-26.00585 8.1269,-12.82258 12.1914,-33.41149 12.1914,-61.76563 v -44.96875 c 0,-25.64515 -4.97519,-58.14577 9.82032,-80.94531 14.83129,-22.85483 70.09371,-42.04297 70.09371,-42.04297 z"
         sodipodi:nodetypes="scsssscccsccsssscscssssccccssccs" />
      <path
         id="path70"
         style="fill:#352925;fill-opacity:1;stroke:none;stroke-width:6.50702;stroke-dasharray:none;stroke-opacity:1;paint-order:normal"
         d="m 743.77504,803.48608 c 0,0 -1.94151,-43.05863 -45.555,-96.27293 43.61349,-53.2143 45.555,-96.27291 45.555,-96.27291 0,0 1.9414,43.05861 45.555,96.27291 -43.6136,53.2143 -45.555,96.27293 -45.555,96.27293 z"
         sodipodi:nodetypes="ccccc" />
    </g>
    <g
       id="g92">
      <path
         id="path73"
         style="font-weight:bold;font-size:554.802px;font-family:'DejaVu Sans';-inkscape-font-specification:'DejaVu Sans Bold';fill:#352925;fill-opacity:1;stroke:#ffe3b5;stroke-width:15;stroke-miterlimit:22;stroke-dasharray:none;stroke-opacity:1"
         d="m 1564.9067,610.94021 c -39.3707,0 -68.0866,7.94512 -86.1465,23.83789 -18.06,15.71217 -27.0898,40.99779 -27.0898,75.85352 v 55.5332 c 0,27.08994 -4.8746,45.87287 -14.627,56.34765 -9.7524,10.47477 -27.4524,15.71094 -53.0976,15.71094 h -16.5235 v 0.002 h -91.1093 v 196.62499 c 0,36.9043 43.7294,87.9649 91.1093,87.9649 V 895.65705 h 16.5235 c 25.6452,0 43.3452,5.23616 53.0976,15.71093 9.7524,10.47478 14.627,29.25772 14.627,56.34766 v 55.53326 c 0,34.8557 9.0298,60.1413 27.0898,75.8535 18.0599,15.8928 46.7758,23.8379 86.1465,23.8379 h 58.7851 c 0,0 -55.2624,-19.1882 -70.0937,-42.043 -14.7955,-22.7995 -9.8203,-55.3001 -9.8203,-80.94534 v -44.96874 c 0,-28.35414 -4.0645,-48.94306 -12.1914,-61.76563 -8.127,-12.82257 -22.1224,-21.49087 -41.9883,-26.00586 l -1.123,-0.27192 1.123,-0.27105 c 19.8659,-4.51499 33.8613,-13.18328 41.9883,-26.00585 8.1269,-12.82258 12.1914,-33.41149 12.1914,-61.76563 v -44.96875 c 0,-25.64515 -4.9752,-58.14577 9.8203,-80.94531 14.8313,-22.85483 70.0937,-42.04297 70.0937,-42.04297 z"
         sodipodi:nodetypes="scsssscccsccsssscscssssccccssccs"
         clip-path="url(#clipPath89)" />
      <path
         id="path74"
         style="fill:#352925;fill-opacity:1;stroke:#ffe3b5;stroke-width:15;stroke-miterlimit:22;stroke-dasharray:none;stroke-opacity:1;paint-order:normal"
         d="m 1321.8666,803.48565 c 0,0 -1.9415,-43.05863 -45.555,-96.27293 43.6135,-53.2143 45.555,-96.27291 45.555,-96.27291 0,0 1.9414,43.05861 45.555,96.27291 -43.6136,53.2143 -45.555,96.27293 -45.555,96.27293 z"
         sodipodi:nodetypes="ccccc"
         clip-path="url(#clipPath87)" />
    </g>
    <g
       id="g80"
       transform="translate(578.09153,-605.28362)"
       style="fill:#d6c4b0;fill-opacity:1;stroke:#5a0000;stroke-width:15;stroke-miterlimit:22;stroke-dasharray:none;stroke-opacity:1"
       clip-path="url(#clipPath76)">
      <path
         id="path79"
         style="font-weight:bold;font-size:554.802px;font-family:'DejaVu Sans';-inkscape-font-specification:'DejaVu Sans Bold';fill:#d6c4b0;fill-opacity:1;stroke:#5a0000;stroke-width:15;stroke-miterlimit:22;stroke-dasharray:none;stroke-opacity:1"
         d="m 986.81518,610.94064 c -39.37071,0 -68.08659,7.94512 -86.14649,23.83789 -18.06,15.71217 -27.08985,40.99779 -27.08985,75.85352 v 55.5332 c 0,27.08994 -4.87455,45.87287 -14.62694,56.34765 -9.7524,10.47477 -27.45246,15.71094 -53.09766,15.71094 H 789.3308 v 0.002 h -91.10937 v 196.62496 c 0,36.9043 43.72947,87.9649 91.10937,87.9649 V 895.65748 h 16.52344 c 25.6452,0 43.34526,5.23616 53.09766,15.71093 9.75239,10.47478 14.62694,29.25772 14.62694,56.34766 v 55.53323 c 0,34.8557 9.02985,60.1413 27.08985,75.8535 18.0599,15.8928 46.77578,23.8379 86.14649,23.8379 h 58.78512 c 0,0 -55.26242,-19.1882 -70.09371,-42.043 -14.79551,-22.7995 -9.82032,-55.3001 -9.82032,-80.94531 v -44.96874 c 0,-28.35414 -4.0645,-48.94306 -12.1914,-61.76563 -8.127,-12.82257 -22.12238,-21.49087 -41.98828,-26.00586 l -1.12305,-0.27192 1.12305,-0.27105 c 19.8659,-4.51499 33.86128,-13.18328 41.98828,-26.00585 8.1269,-12.82258 12.1914,-33.41149 12.1914,-61.76563 v -44.96875 c 0,-25.64515 -4.97519,-58.14577 9.82032,-80.94531 14.83129,-22.85483 70.09371,-42.04297 70.09371,-42.04297 z"
         sodipodi:nodetypes="scsssscccsccsssscscssssccccssccs" />
      <path
         id="path80"
         style="fill:#d6c4b0;fill-opacity:1;stroke:#5a0000;stroke-width:15;stroke-miterlimit:22;stroke-dasharray:none;stroke-opacity:1;paint-order:normal"
         d="m 743.77504,803.48608 c 0,0 -1.94151,-43.05863 -45.555,-96.27293 43.61349,-53.2143 45.555,-96.27291 45.555,-96.27291 0,0 1.9414,43.05861 45.555,96.27291 -43.6136,53.2143 -45.555,96.27293 -45.555,96.27293 z"
         sodipodi:nodetypes="ccccc" />
    </g>
  </g>
</svg>
