<?xml version="1.0" encoding="UTF-8"?>
<svg id="Layer_1" xmlns="http://www.w3.org/2000/svg" viewBox="0 0 1080 1080">
  <defs>
    <style>
      .cls-1 {
        fill: #fff;
      }

      .cls-2 {
        fill: #1e1e1e;
      }
    </style>
  </defs>
  <rect class="cls-1" width="1080" height="1080"/>
  <g>
    <path class="cls-2" d="M638.29,223.13h-167.38l-265.83,316.87,265.83,316.87h167.38l-265.83-316.87,265.83-316.87ZM585.58,844.32h-49.88l-255.41-304.32,255.41-304.32h49.88l-255.41,304.32,255.41,304.32Z"/>
    <polygon class="cls-2" points="652 400.84 695.49 400.84 745.37 400.84 746.84 400.84 787.55 400.84 638.46 223.13 638.28 223.13 617.26 248.19 733.02 386.12 683.14 386.12 592.32 277.91 554.68 322.78 620.17 400.84 652 400.84"/>
    <polygon class="cls-2" points="745.37 679.16 695.49 679.16 652 679.16 620.17 679.16 554.68 757.22 592.32 802.09 683.14 693.88 733.02 693.88 617.26 831.81 638.28 856.87 638.46 856.87 787.55 679.16 746.84 679.16 745.37 679.16"/>
    <polygon class="cls-2" points="554.68 490.27 512.96 540 554.68 589.73 596.4 540 554.68 490.27"/>
  </g>
</svg>