<?xml version="1.0" encoding="UTF-8"?>
<svg id="Layer_1" xmlns="http://www.w3.org/2000/svg" viewBox="0 0 1080 1080">
  <defs>
    <style>
      .cls-1 {
        fill: #161616;
      }
      @media (prefers-color-scheme: dark) {
        .cls-1 {
        fill: #f4f4f4;
        }
      }
    </style>
  </defs>
  <polygon class="cls-1" points="787.61 729.37 726.23 729.37 614.47 862.53 645.15 899.1 787.61 729.37"/>
  <polygon class="cls-1" points="787.61 350.63 645.15 180.9 614.47 217.47 726.23 350.63 787.61 350.63"/>
  <polygon class="cls-1" points="544.79 165.5 230.47 540 544.79 914.5 606.17 914.5 291.85 540 606.17 165.5 544.79 165.5"/>
  <path class="cls-1" d="M540,0h0C241.77,0,0,241.77,0,540h0c0,298.23,241.77,540,540,540h0c298.23,0,540-241.77,540-540h0C1080,241.77,838.23,0,540,0ZM343.89,540l224.26,267.31,80.59-96.06h205.98l-183.47,218.7h-206.2l-327.14-389.95L465.05,150.05h206.2l183.47,218.7h-205.98l-80.59-96.06-224.26,267.31ZM619.49,540l-51.34,61.2-51.34-61.2,51.34-61.2,51.34,61.2Z"/>
</svg>